<svg width="16" height="17" viewBox="0 0 16 17" fill="none" xmlns="http://www.w3.org/2000/svg">
<path d="M15.3343 0.239897C15.2694 0.182911 15.1839 0.156981 15.0974 0.167232L5.79294 1.3766C5.64347 1.3962 5.53152 1.52374 5.53152 1.6754V3.48961V4.75958V12.4132C4.98345 11.7514 4.11273 11.3208 3.13036 11.3208C1.47536 11.3208 0.128906 12.538 0.128906 14.0344C0.128906 15.5308 1.47536 16.7481 3.13036 16.7481C4.78536 16.7481 6.13181 15.5308 6.13181 14.0344C6.13181 13.9645 6.1261 13.8957 6.1201 13.8273C6.124 13.8077 6.13181 13.7899 6.13181 13.7694V5.02461L14.836 3.89303V9.39776C14.2879 8.73624 13.4172 8.30568 12.4349 8.30568C10.7799 8.30568 9.4334 9.52289 9.4334 11.0193C9.4334 12.5157 10.7799 13.7329 12.4349 13.7329C14.0748 13.7329 15.4102 12.5371 15.4342 11.0594C15.4342 11.0555 15.4363 11.0522 15.4363 11.0482V3.54991V2.28024V0.466333C15.4363 0.379498 15.3991 0.296883 15.3343 0.239897Z" fill="white"/>
</svg>
